<?xml version="1.0" encoding="iso-8859-1"?>
<!-- Generator: Adobe Illustrator 16.0.0, SVG Export Plug-In . SVG Version: 6.00 Build 0)  -->
<!DOCTYPE svg PUBLIC "-//W3C//DTD SVG 1.1//EN" "http://www.w3.org/Graphics/SVG/1.1/DTD/svg11.dtd">
<svg version="1.1" id="Capa_1" xmlns="http://www.w3.org/2000/svg" xmlns:xlink="http://www.w3.org/1999/xlink" x="0px" y="0px"
	 width="492.189px" height="492.189px" viewBox="0 0 492.189 492.189" style="enable-background:new 0 0 492.189 492.189;"
	 xml:space="preserve">
<g>
	<g>
		<g>
			<path d="M331.038,209.235c2.723,8.027,4.332,15.15,4.332,20.902c0,46.58-45.624,84.354-101.886,84.354
				s-101.848-37.772-101.848-84.354c0-5.752,1.559-12.875,4.313-20.902c-47.406,19.801-80.764,66.592-80.764,121.195v116.818
				c0,24.832,20.127,44.94,44.939,44.94h266.692c24.858,0,44.922-20.108,44.922-44.94V330.431
				C411.739,275.826,378.458,229.021,331.038,209.235z"/>
			<path d="M137.081,206.187c20.52,36.654,55.598,65.099,96.402,65.099c40.792,0,75.886-28.443,96.415-65.099
				c3.065-5.533,5.743-11.271,8.144-17.129c7.104-17.205,11.158-35.385,11.158-52.82c0-63.803-51.912-115.715-115.715-115.715
				S117.767,72.435,117.767,136.237c0,17.436,4.074,35.615,11.16,52.82C131.329,194.915,133.989,200.653,137.081,206.187z
				 M233.485,63.322c40.204,0,72.9,32.744,72.9,72.916c0,41.518-33.616,92.234-72.9,92.234c-39.232,0-72.898-50.717-72.898-92.234
				C160.586,96.065,193.293,63.322,233.485,63.322z"/>
			<path d="M110.924,5.197c-2.625-3.473-6.746-5.42-11.061-5.176l-86.75,4.932C10.371,5.065,8.086,7.11,7.629,9.785
				c-0.518,2.74,1.234,4.867,3.424,6.52c12.748,9.602,30.559,24.752,30.559,24.752C26.723,57.921,16.923,78.682,13.569,101.4
				c-4.574,31.141,3.229,62.131,21.975,87.383c5.043,6.797,14.629,8.174,21.426,3.166c6.777-5.045,8.156-14.662,3.131-21.408
				c-13.883-18.688-19.707-41.586-16.268-64.648c2.105-14.369,7.98-27.424,16.379-38.775c0,0,7.561,19.268,11.254,30.439
				c0.863,2.611,2.502,4.881,5.205,5.176c2.729,0.324,5.32-1.332,6.246-3.83l29.727-81.621
				C114.119,13.158,113.489,8.663,110.924,5.197z"/>
			<path d="M381.266,189.771c2.623,3.471,6.746,5.418,11.061,5.174l86.752-4.932c2.739-0.111,5.024-2.154,5.481-4.832
				c0.521-2.74-1.234-4.867-3.425-6.52c-12.748-9.602-30.557-24.746-30.557-24.746c14.887-16.871,24.686-37.629,28.043-60.348
				c4.573-31.141-3.23-62.133-21.976-87.385c-5.046-6.795-14.632-8.174-21.429-3.16c-6.776,5.043-8.153,14.658-3.129,21.404
				c13.887,18.687,19.707,41.586,16.267,64.646c-2.104,14.369-7.979,27.424-16.38,38.777c0,0-7.559-19.27-11.252-30.441
				c-0.862-2.609-2.498-4.881-5.207-5.176c-2.729-0.324-5.319,1.334-6.245,3.83l-29.728,81.627
				C378.069,181.812,378.702,186.304,381.266,189.771z"/>
		</g>
	</g>
</g>
<g>
</g>
<g>
</g>
<g>
</g>
<g>
</g>
<g>
</g>
<g>
</g>
<g>
</g>
<g>
</g>
<g>
</g>
<g>
</g>
<g>
</g>
<g>
</g>
<g>
</g>
<g>
</g>
<g>
</g>
</svg>
